<svg id="Layer_1" data-name="Layer 1" xmlns="http://www.w3.org/2000/svg" xmlns:xlink="http://www.w3.org/1999/xlink" viewBox="0 0 1500 462"><defs><style>.cls-1{fill:url(#linear-gradient);}.cls-2,.cls-3,.cls-4,.cls-5,.cls-6,.cls-7,.cls-8,.cls-9{opacity:0.8;}.cls-2{fill:url(#linear-gradient-2);}.cls-3{fill:url(#linear-gradient-3);}.cls-4{fill:url(#linear-gradient-4);}.cls-5{fill:url(#linear-gradient-5);}.cls-6{fill:url(#linear-gradient-6);}.cls-7{fill:url(#linear-gradient-7);}.cls-8{fill:url(#linear-gradient-8);}.cls-9{fill:url(#linear-gradient-9);}.cls-10{fill:url(#linear-gradient-10);}.cls-11{fill:url(#linear-gradient-11);}.cls-12{fill:#010607;}.cls-13{fill:url(#linear-gradient-12);}</style><linearGradient id="linear-gradient" x1="160.9" y1="119.63" x2="329.08" y2="334.23" gradientUnits="userSpaceOnUse"><stop offset="0.16" stop-color="#6638b6"/><stop offset="0.87" stop-color="#00a9ce"/></linearGradient><linearGradient id="linear-gradient-2" x1="360.04" y1="287.59" x2="367.74" y2="208.34" gradientUnits="userSpaceOnUse"><stop offset="0.32" stop-color="#00008b" stop-opacity="0"/><stop offset="0.45" stop-color="#00008a" stop-opacity="0.04"/><stop offset="0.58" stop-color="#000087" stop-opacity="0.15"/><stop offset="0.71" stop-color="#000082" stop-opacity="0.33"/><stop offset="0.84" stop-color="#00007b" stop-opacity="0.59"/><stop offset="0.97" stop-color="#000071" stop-opacity="0.92"/><stop offset="1" stop-color="#00006f"/></linearGradient><linearGradient id="linear-gradient-3" x1="134.33" y1="202.38" x2="122.4" y2="270.1" gradientUnits="userSpaceOnUse"><stop offset="0" stop-color="#00008b" stop-opacity="0"/><stop offset="0.19" stop-color="#00008a" stop-opacity="0.04"/><stop offset="0.38" stop-color="#000087" stop-opacity="0.15"/><stop offset="0.57" stop-color="#000082" stop-opacity="0.33"/><stop offset="0.76" stop-color="#00007b" stop-opacity="0.59"/><stop offset="0.96" stop-color="#000071" stop-opacity="0.92"/><stop offset="1" stop-color="#00006f"/></linearGradient><linearGradient id="linear-gradient-4" x1="220.42" y1="220.02" x2="211.76" y2="267.34" xlink:href="#linear-gradient-3"/><linearGradient id="linear-gradient-5" x1="153.39" y1="259.89" x2="164.55" y2="219.49" xlink:href="#linear-gradient-3"/><linearGradient id="linear-gradient-6" x1="283.65" y1="218.94" x2="275.95" y2="259.53" xlink:href="#linear-gradient-2"/><linearGradient id="linear-gradient-7" x1="251.16" y1="247.41" x2="241.41" y2="207.02" xlink:href="#linear-gradient-3"/><linearGradient id="linear-gradient-8" x1="313.3" y1="265.87" x2="296.5" y2="219.7" xlink:href="#linear-gradient-3"/><linearGradient id="linear-gradient-9" x1="341.8" y1="224.78" x2="326.28" y2="270.69" gradientUnits="userSpaceOnUse"><stop offset="0" stop-color="#00008b" stop-opacity="0"/><stop offset="0.17" stop-color="#00008a" stop-opacity="0.05"/><stop offset="0.37" stop-color="#000086" stop-opacity="0.18"/><stop offset="0.59" stop-color="navy" stop-opacity="0.4"/><stop offset="0.81" stop-color="#007" stop-opacity="0.7"/><stop offset="1" stop-color="#00006f"/></linearGradient><linearGradient id="linear-gradient-10" x1="300.43" y1="197.84" x2="84.6" y2="122.43" gradientUnits="userSpaceOnUse"><stop offset="0" stop-color="#00008b" stop-opacity="0"/><stop offset="0.15" stop-color="#000089" stop-opacity="0.07"/><stop offset="0.38" stop-color="#000084" stop-opacity="0.25"/><stop offset="0.66" stop-color="#00007c" stop-opacity="0.55"/><stop offset="0.98" stop-color="#000070" stop-opacity="0.97"/><stop offset="1" stop-color="#00006f"/></linearGradient><linearGradient id="linear-gradient-11" x1="246.84" y1="981.22" x2="31" y2="905.81" gradientTransform="translate(442.69 1245.98) rotate(180)" xlink:href="#linear-gradient-10"/><linearGradient id="linear-gradient-12" x1="779.66" y1="144.49" x2="838.27" y2="281.93" xlink:href="#linear-gradient"/></defs><path class="cls-1" d="M381.22,231a134.48,134.48,0,0,1-1.07,16.66,132.91,132.91,0,0,1-218.79,84.15,134.47,134.47,0,0,1-25.47-29.43,40.9,40.9,0,0,0,5.19.37,38.31,38.31,0,0,0,19.34-5.23l.94-.55a111.13,111.13,0,0,0,12.73,14,109.1,109.1,0,0,0,170.16-28.3c1.2-2.24,2.35-4.53,3.4-6.89a108.43,108.43,0,0,0,9.46-39.42c.09-1.78.13-3.57.13-5.38,0-3.07-.13-6.13-.39-9.13l-2.27,5.6-.92,2.24-1.7,4.17-7.45,18.27-4.23,10.4-.37.89-4.25,10.42a24,24,0,0,1-3.23,6.11,17.7,17.7,0,0,1-6.63,5.53,15.31,15.31,0,0,1-6.65,1.51,15.8,15.8,0,0,1-6.65-1.48,17.12,17.12,0,0,1-4.16-2.84l-.7-.65a22.75,22.75,0,0,1-5.23-8.75l-.09-.21-.3-1-10.88-35.49-.52,1.59-3.6,11a.54.54,0,0,1,0,.11l-4.77,14.54-4.08,12.41,0,.11a24.4,24.4,0,0,1-3.47,6.69,17.91,17.91,0,0,1-6.65,5.54,15.57,15.57,0,0,1-13.25,0,17.38,17.38,0,0,1-4.89-3.49,22.79,22.79,0,0,1-5.23-8.74l-.28-.79-3.16-15.65-7.94-39.51-6.12,27.45c0,.09-.05.18-.07.24l-5.32,23.79-1.18,5.23-.21.63a25.06,25.06,0,0,1-3.45,6.72,17.84,17.84,0,0,1-6.65,5.55,15.4,15.4,0,0,1-13.3,0,16.93,16.93,0,0,1-4.88-3.51,23,23,0,0,1-5.21-8.76l0,0-13.54-40.55L165,259.34l-4.21,11.36-.26.72-.15.44-.11.3-.09.24,0,0a20.26,20.26,0,0,1-8,9.73l-.26.15a20.82,20.82,0,0,1-30.74-11.56c-.37-1.17-.72-2.35-1-3.53a128.07,128.07,0,0,1-3.32-15.11c-.08-.56-.17-1.15-.26-1.74a7.9,7.9,0,0,1-.13-1c-.11-.78-.22-1.59-.3-2.4-.14-1-.24-2-.33-3-.42-4.3-.66-8.64-.66-13,0-.24,0-.48,0-.72A133,133,0,0,1,333,128.51c.48.39,1,.79,1.41,1.18.14.11.24.22.37.33a133.34,133.34,0,0,1,34.69,46.3,39.43,39.43,0,0,0-12-2h-.11a37.6,37.6,0,0,0-12.8,2.27c-.52.17-1,.41-1.55.61a108.62,108.62,0,0,0-23.78-29c-.11-.11-.24-.19-.35-.3-.63-.55-1.29-1.05-1.94-1.57A109,109,0,0,0,139.1,231c0,1.26.06,2.53.1,3.77.09,2.68.24,5.34.53,8q.61,5.63,1.76,11.05l3.06-8.24,3.77-10.16L155,217.31l1.88-5a23.84,23.84,0,0,1,3.37-6.45,17.75,17.75,0,0,1,6.65-5.56,15.45,15.45,0,0,1,13.28,0,16.44,16.44,0,0,1,4.88,3.49,22.62,22.62,0,0,1,5.24,8.74l0,.09,12,35.93,7.87-35.13,6.37-28.45.22-.63a24.27,24.27,0,0,1,3.44-6.71,17.69,17.69,0,0,1,6.63-5.56,15.3,15.3,0,0,1,13.34,0,16.29,16.29,0,0,1,4.86,3.49,23.17,23.17,0,0,1,5.23,8.76l.27.76,1.81,9,1.09,5.36,1.72,8.55,2.7,13.47,2.92,14.48,2,10,11.73-35.77,0-.07a24.3,24.3,0,0,1,3.45-6.71,17.24,17.24,0,0,1,3-3.27,16.59,16.59,0,0,1,3.6-2.31,15.72,15.72,0,0,1,16.5,2,15.14,15.14,0,0,1,1.39,1.24l.27.24c.45.48.89,1,1.26,1.44a23,23,0,0,1,4,7.31l.09.22,4,13.14,4,13.21L320,248.81l10.38-25.48,2.22-5.43,1.94-4.8L337,207l.06-.15,0,0A23.7,23.7,0,0,1,344.94,196a20.62,20.62,0,0,1,5.5-3,20.92,20.92,0,0,1,6.91-1.24h.09a22.26,22.26,0,0,1,13.82,5,24.31,24.31,0,0,1,7.87,11.75c.09.31.2.59.28.9l.18.65.11.68c.08.63.19,1.26.26,1.89a128.6,128.6,0,0,1,1.2,14.81v0C381.2,228.65,381.22,229.82,381.22,231Z"/><path class="cls-2" d="M381.21,231a136.59,136.59,0,0,1-1.06,16.66,132.73,132.73,0,0,1-12.5,41.88l-23.41-6.85c1.2-2.25,2.35-4.53,3.4-6.89a108.22,108.22,0,0,0,9.46-39.42c.09-1.78.13-3.57.13-5.38,0-3.07-.13-6.13-.39-9.14l.13-.26c6.16-11.72,23.84-7.38,24.2,5.86C381.2,228.64,381.21,229.83,381.21,231Z"/><path class="cls-3" d="M139.73,242.75q.61,5.63,1.76,11.05a1.58,1.58,0,0,0-.08.27c-4.25,12.51-22.2,10.83-24.62-2a3.2,3.2,0,0,1-.08-.48c-.07-.41-.13-.85-.18-1.26a7.9,7.9,0,0,1-.13-1c-.11-.78-.22-1.59-.3-2.4-.14-1-.24-2-.33-3-.42-4.3-.66-8.64-.66-13,0-.24,0-.48,0-.72a132.21,132.21,0,0,1,5.47-37.17l19.27,8.74,2.81,1.27A109,109,0,0,0,139.1,231c0,1.26.06,2.53.1,3.77C139.29,237.45,139.44,240.11,139.73,242.75Z"/><path class="cls-4" d="M233.21,220.38l-6.13,27.44c-2.89,12.89-21.11,13.46-24.72.76l0-.07,7.87-35.13Z"/><path class="cls-5" d="M173.24,237.06c-2.8-12.65-20.41-13.8-24.92-1.66l-3.77,10.16-3.05,8.24,19.31,16.9L165,259.34l8.24-22.21Z"/><path class="cls-6" d="M303,199.79l-15.58,48.3c-.11.37-.26.72-.39,1.07,0,0,0,.07,0,.11-4.89,11.47-22.37,9.59-24.16-3.27v-.07l11.73-35.77,0-.07a24.3,24.3,0,0,1,3.45-6.71,17.57,17.57,0,0,1,3-3.27Z"/><path class="cls-7" d="M262.82,246l-21.67,13.89-7.94-39.51.09-.31c3.68-12.6,22-11.5,24.6,1.37Z"/><path class="cls-8" d="M325,265.64l-16.65,17.05-.7-.65a22.75,22.75,0,0,1-5.23-8.75l-.09-.21-.3-1-10.88-35.49.15-.48c0-.09.07-.2.09-.28,4.12-11.84,21.19-11.19,24.85.8Z"/><path class="cls-9" d="M344.51,252.15c-4.45,10.91-20.38,10.5-23.79-.78a2.76,2.76,0,0,1-.08-.27l-.66-2.29,10.38-25.48,2.22-5.43,22,9.57-.91,2.24-1.7,4.17Z"/><path class="cls-10" d="M333,128.51c-4.73,6.8-9.49,13.61-13.78,19.73-.11-.11-.24-.19-.35-.3-.63-.55-1.29-1.05-1.94-1.57A109,109,0,0,0,139.1,231a136.4,136.4,0,0,1,.78-29.15c3.56-28.55,16.92-70.74,62.92-91.94A120.27,120.27,0,0,1,298,107.62,133.08,133.08,0,0,1,333,128.51Z"/><path class="cls-11" d="M163.28,334.12c4.73-6.8,9.48-13.6,13.78-19.73.1.11.24.2.34.31.64.54,1.29,1,1.94,1.57a109.15,109.15,0,0,0,177.9-84.68,140.19,140.19,0,0,1-.85,29.19c-3.56,28.56-16.92,70.75-62.91,92A120.31,120.31,0,0,1,198.24,355,132.65,132.65,0,0,1,163.28,334.12Z"/><path class="cls-12" d="M562.07,157.36l-.48,1,.48-1q-17.27-8.67-39.51-8.66H461.14V288.46h61.42q22.23,0,39.51-8.67a64.71,64.71,0,0,0,26.87-24.48c6.41-10.54,9.6-22.81,9.6-36.73s-3.19-26.2-9.6-36.74A64.77,64.77,0,0,0,562.07,157.36Zm-73.23,15.11H521c10.22,0,19,1.94,26.34,5.78a43.28,43.28,0,0,1,17.27,15.92c4.14,6.76,6.23,14.86,6.23,24.41,0,9.27-2.09,17.32-6.23,24.21a42.91,42.91,0,0,1-17.27,16.12c-7.36,3.84-16.12,5.77-26.34,5.77H488.84Z"/><polygon class="cls-12" points="749.35 148.69 746.87 148.69 717.51 148.69 651.22 217.7 651.22 148.69 623.52 148.69 623.52 288.45 651.22 288.45 651.22 252.39 671.9 231.39 720.03 288.45 752.85 288.45 690.42 211.3 749.35 148.69"/><path class="cls-13" d="M841.22,155.15a57.55,57.55,0,0,0-59.94,0c-8.83,5.62-15.81,13.83-20.93,24.53s-7.67,23.71-7.67,38.9,2.54,28.16,7.67,38.89,12.1,18.91,20.93,24.53a57.55,57.55,0,0,0,59.94,0c8.83-5.62,15.82-13.83,20.94-24.53s7.67-23.7,7.67-38.89-2.55-28.17-7.67-38.9S850.05,160.77,841.22,155.15ZM838,245.52c-2.65,7.08-6.24,12.23-10.74,15.54a26.11,26.11,0,0,1-15.88,5,26.45,26.45,0,0,1-16-5c-4.57-3.31-8.23-8.46-10.93-15.53s-4.06-16-4.06-26.94,1.37-19.91,4.06-27,6.36-12.21,10.93-15.53a26.45,26.45,0,0,1,16-5,26.11,26.11,0,0,1,15.88,5c4.5,3.32,8.09,8.46,10.74,15.53s4,16,4,27-1.34,19.91-4,26.94Z"/><path class="cls-12" d="M984.24,242.39l0,0h0a47.07,47.07,0,0,0,20.61-17.1c4.84-7.4,7.25-16.28,7.24-26.54s-2.4-19.39-7.24-26.92a46,46,0,0,0-20.62-17.21Q971,148.68,952.5,148.7H894.81V288.46h27.7V248.35h30c1.68,0,3.23-.12,4.77-.2l28.09,40.31h30.15l-32.08-45.77Zm-61.73-69.92h28.81c11.13,0,19.34,2.37,24.77,6.92s8.15,10.91,8.16,19.33-2.72,14.79-8.17,19.43-13.63,7-24.76,7H922.51Z"/><polygon class="cls-12" points="1181.08 251.6 1147.11 148.69 1121.98 148.69 1087.2 251.06 1053.73 148.69 1024.93 148.69 1071.24 288.45 1100.31 288.45 1133.92 189.03 1167.18 288.45 1195.86 288.45 1242.18 148.69 1215.55 148.69 1181.08 251.6"/><path class="cls-12" d="M1357.58,148.7v77.74c0,14-3,24-8.75,30.13s-14,9.28-25,9.29-19.21-3.13-25.08-9.29-8.84-16.12-8.84-30.13V148.7h-27.71v78.52c0,20.37,5.41,36.1,16.34,47s26,16.25,44.89,16.24,34.18-5.38,45.09-16.24,16.34-26.6,16.34-47V148.7Z"/><path d="M472.42,349.41c-3.53,0-6.28-1-8.27-3s-3-4.78-3-8.44V324.14H467v13.73q0,3.51,1.46,5.09a5.23,5.23,0,0,0,4,1.58,5.3,5.3,0,0,0,4.09-1.58c1-1,1.45-2.75,1.45-5.09V324.14h5.64V338q0,5.49-3,8.44C478.66,348.42,475.92,349.41,472.42,349.41Z"/><path d="M510.49,329.61a8.91,8.91,0,0,1,4.06.9,6.58,6.58,0,0,1,2.82,2.76,9.81,9.81,0,0,1,1,4.78V349h-5.54V338.9a4.88,4.88,0,0,0-1-3.41,3.68,3.68,0,0,0-2.85-1.1,4.85,4.85,0,0,0-2.36.57,4,4,0,0,0-1.63,1.67,6.21,6.21,0,0,0-.59,2.91V349h-5.54V329.89h5.29v5.28l-1-1.59a7.09,7.09,0,0,1,2.94-2.95A9.18,9.18,0,0,1,510.49,329.61Z"/><path d="M536.1,327.22a3.57,3.57,0,0,1-2.52-.88,3,3,0,0,1,0-4.4,3.57,3.57,0,0,1,2.52-.89,3.78,3.78,0,0,1,2.51.83,2.73,2.73,0,0,1,1,2.16,3,3,0,0,1-1,2.28A3.5,3.5,0,0,1,536.1,327.22ZM533.34,349V329.89h5.54V349Z"/><path d="M559.17,349l-8-19.09h5.67l6.67,16.43h-2.83l7-16.43h5.28l-8,19.09Z"/><path d="M594,349.26a12.2,12.2,0,0,1-5.71-1.28,9.37,9.37,0,0,1-3.79-3.5,9.49,9.49,0,0,1-1.35-5.05,10,10,0,0,1,1.29-5.07,9.08,9.08,0,0,1,3.62-3.49,10.79,10.79,0,0,1,5.23-1.26,10.59,10.59,0,0,1,5.06,1.2,9.19,9.19,0,0,1,3.57,3.4,10.24,10.24,0,0,1,1.31,5.3,6.49,6.49,0,0,1,0,.72c0,.28,0,.53-.07.76h-15.5v-3.23h12.59l-2.16,1a5.11,5.11,0,0,0-.57-2.59,4.45,4.45,0,0,0-1.67-1.72,4.86,4.86,0,0,0-2.48-.62,5,5,0,0,0-2.5.62,4.49,4.49,0,0,0-1.69,1.74,5.5,5.5,0,0,0-.6,2.64v.86a5.31,5.31,0,0,0,.71,2.77,4.75,4.75,0,0,0,2,1.79,6.66,6.66,0,0,0,3,.61,7.29,7.29,0,0,0,2.65-.45A6.78,6.78,0,0,0,599,343l2.94,3.2a8.57,8.57,0,0,1-3.3,2.28A12.24,12.24,0,0,1,594,349.26Z"/><path d="M616.89,349V329.89h5.29v5.43l-.75-1.6a6.16,6.16,0,0,1,2.73-3.07,9.28,9.28,0,0,1,4.58-1v5.13l-.62-.1-.59,0a5.2,5.2,0,0,0-3.72,1.31,5.35,5.35,0,0,0-1.38,4.05v9Z"/><path d="M648.54,349.26a18,18,0,0,1-4.68-.59,11.81,11.81,0,0,1-3.58-1.47l1.81-3.93a13.72,13.72,0,0,0,3.14,1.29,12.4,12.4,0,0,0,3.53.51,5.75,5.75,0,0,0,2.71-.46,1.41,1.41,0,0,0,.8-1.28,1.11,1.11,0,0,0-.62-1,5.7,5.7,0,0,0-1.63-.51c-.68-.12-1.43-.24-2.26-.35a23.49,23.49,0,0,1-2.47-.5,9.38,9.38,0,0,1-2.26-.91,4.31,4.31,0,0,1-1.67-1.61,5.65,5.65,0,0,1,.44-5.87,6.86,6.86,0,0,1,3-2.18,12.71,12.71,0,0,1,4.72-.78,18.2,18.2,0,0,1,4,.44,12.45,12.45,0,0,1,3.38,1.22L655,335.21a9.71,9.71,0,0,0-2.75-1.1,11.57,11.57,0,0,0-2.67-.32,5.66,5.66,0,0,0-2.77.5,1.46,1.46,0,0,0-.85,1.28,1.18,1.18,0,0,0,.64,1.08,5,5,0,0,0,1.66.55c.69.12,1.45.24,2.27.35a20.06,20.06,0,0,1,2.45.5,9.52,9.52,0,0,1,2.26.9,4.63,4.63,0,0,1,1.67,1.62,5.11,5.11,0,0,1,.61,2.66,4.94,4.94,0,0,1-1.06,3.11,7,7,0,0,1-3.07,2.14A13.46,13.46,0,0,1,648.54,349.26Z"/><path d="M673.66,327.22a3.57,3.57,0,0,1-2.52-.88,3,3,0,0,1,0-4.4,3.57,3.57,0,0,1,2.52-.89,3.75,3.75,0,0,1,2.5.83,2.73,2.73,0,0,1,1,2.16,3,3,0,0,1-1,2.28A3.54,3.54,0,0,1,673.66,327.22ZM670.89,349V329.89h5.54V349Z"/><path d="M689.23,334.57v-4.26h13.24v4.26Zm10.08,14.69a7.5,7.5,0,0,1-5.25-1.72,6.61,6.61,0,0,1-1.88-5.12V325.67h5.57v16.64a2.7,2.7,0,0,0,.62,1.88,2.19,2.19,0,0,0,1.69.67,3.58,3.58,0,0,0,2.27-.71l1.45,3.9a5.68,5.68,0,0,1-2,.91A10.13,10.13,0,0,1,699.31,349.26Z"/><path d="M718.93,356.14a9.55,9.55,0,0,1-2.91-.46,6.75,6.75,0,0,1-2.41-1.28l2-4a4.33,4.33,0,0,0,1.47.93,4.68,4.68,0,0,0,1.68.32,2.83,2.83,0,0,0,1.83-.56,4.74,4.74,0,0,0,1.26-1.82l1-2.34.43-.61,6.88-16.46h5.29l-8.62,20.26a11.76,11.76,0,0,1-2.12,3.64,6.66,6.66,0,0,1-2.62,1.82A9,9,0,0,1,718.93,356.14Zm3.27-6.42-8.48-19.83h5.68l6.63,16Z"/><path d="M764.77,349l11-24.84h5.67L792.63,349h-6l-9.12-21.93h2.31L770.66,349Zm5.57-5.33,1.45-4.36h12.85l1.49,4.36Z"/><path d="M829.21,329.61a8.69,8.69,0,0,1,4,.9,6.43,6.43,0,0,1,2.75,2.76,10.06,10.06,0,0,1,1,4.78V349h-5.54V338.9a5.14,5.14,0,0,0-.94-3.41,3.3,3.3,0,0,0-2.64-1.1,4.31,4.31,0,0,0-2.2.56,3.57,3.57,0,0,0-1.48,1.63,6.65,6.65,0,0,0-.51,2.82V349h-5.53V338.9a5.14,5.14,0,0,0-.95-3.41,3.37,3.37,0,0,0-2.71-1.1,4.21,4.21,0,0,0-2.16.56,3.59,3.59,0,0,0-1.49,1.63,6.33,6.33,0,0,0-.53,2.82V349h-5.54V329.89H810v5.17l-1-1.48a6.68,6.68,0,0,1,2.81-3,8.52,8.52,0,0,1,4.15-1,8.15,8.15,0,0,1,4.61,1.32,6.47,6.47,0,0,1,2.63,4.07l-2-.53a7.81,7.81,0,0,1,3.05-3.54A9,9,0,0,1,829.21,329.61Z"/><path d="M857.8,349.26a8.83,8.83,0,0,1-3.79-.76,6,6,0,0,1-2.47-2.08,5.2,5.2,0,0,1-.87-2.94,5.44,5.44,0,0,1,.83-3,5.34,5.34,0,0,1,2.65-2,13.1,13.1,0,0,1,4.75-.71h5V341h-4.47a4.15,4.15,0,0,0-2.68.64,2.05,2.05,0,0,0-.73,1.6,2,2,0,0,0,.84,1.68,3.62,3.62,0,0,0,2.25.63,5,5,0,0,0,2.54-.64,3.55,3.55,0,0,0,1.58-1.95l.85,2.59a5.11,5.11,0,0,1-2.2,2.75A7.92,7.92,0,0,1,857.8,349.26Zm5.82-.28v-3.73l-.35-.82v-6.67a3.56,3.56,0,0,0-1.08-2.76,4.76,4.76,0,0,0-3.32-1,9.61,9.61,0,0,0-3,.48,8.33,8.33,0,0,0-2.54,1.3l-2-3.87a11.13,11.13,0,0,1,3.76-1.72,17.35,17.35,0,0,1,4.47-.58,10.1,10.1,0,0,1,6.78,2.06c1.61,1.37,2.42,3.5,2.42,6.41V349Z"/><path d="M881.47,334.57v-4.26H894.7v4.26Zm10.08,14.69a7.49,7.49,0,0,1-5.26-1.72,6.57,6.57,0,0,1-1.88-5.12V325.67H890v16.64a2.7,2.7,0,0,0,.62,1.88,2.19,2.19,0,0,0,1.69.67,3.58,3.58,0,0,0,2.27-.71l1.45,3.9a5.76,5.76,0,0,1-2,.91A10,10,0,0,1,891.55,349.26Z"/><path d="M918,349.26a12.17,12.17,0,0,1-5.71-1.28,9.4,9.4,0,0,1-3.8-3.5,9.58,9.58,0,0,1-1.35-5.05,9.86,9.86,0,0,1,1.3-5.07,9.08,9.08,0,0,1,3.62-3.49,10.8,10.8,0,0,1,5.24-1.26,10.58,10.58,0,0,1,5.05,1.2,9.19,9.19,0,0,1,3.57,3.4,10.24,10.24,0,0,1,1.31,5.3c0,.21,0,.45,0,.72s0,.53-.07.76h-15.5v-3.23h12.59l-2.16,1a5.11,5.11,0,0,0-.57-2.59,4.45,4.45,0,0,0-1.67-1.72,4.86,4.86,0,0,0-2.48-.62,5,5,0,0,0-2.51.62,4.53,4.53,0,0,0-1.68,1.74,5.5,5.5,0,0,0-.6,2.64v.86a5.22,5.22,0,0,0,.71,2.77,4.75,4.75,0,0,0,1.95,1.79,6.66,6.66,0,0,0,3,.61,7.2,7.2,0,0,0,2.64-.45A6.67,6.67,0,0,0,922.9,343l3,3.2a8.57,8.57,0,0,1-3.3,2.28A12.24,12.24,0,0,1,918,349.26Z"/><path d="M948.88,349.26a9.47,9.47,0,0,1-4.26-.92,6.63,6.63,0,0,1-2.88-2.84,10.2,10.2,0,0,1-1-4.83V329.89h5.53v9.93a5.17,5.17,0,0,0,1,3.53,3.64,3.64,0,0,0,2.86,1.12,4.48,4.48,0,0,0,2.27-.57,4,4,0,0,0,1.58-1.7,6.16,6.16,0,0,0,.58-2.84v-9.47h5.5V349h-5.24v-5.29l1,1.56a6.77,6.77,0,0,1-2.84,3A8.19,8.19,0,0,1,948.88,349.26Z"/><path d="M975.14,349V329.89h5.28v5.43l-.74-1.6a6.1,6.1,0,0,1,2.72-3.07,9.32,9.32,0,0,1,4.59-1v5.13l-.63-.1-.58,0a5.24,5.24,0,0,0-3.73,1.31,5.35,5.35,0,0,0-1.38,4.05v9Z"/><path d="M1020.72,349V324.14h10.75a14.06,14.06,0,0,1,5.76,1.08,8.92,8.92,0,0,1,3.72,12.7,8.3,8.3,0,0,1-3.72,3.06,14.42,14.42,0,0,1-5.76,1h-7.58l2.62-2.48V349Zm5.79-8.8-2.62-2.74h7.26a6,6,0,0,0,4-1.13,4,4,0,0,0,1.35-3.2,3.89,3.89,0,0,0-1.35-3.17,6.09,6.09,0,0,0-4-1.12h-7.26l2.62-2.73Zm10,8.8-6.24-9h6.17l6.24,9Z"/><path d="M1062.06,349.26a8.85,8.85,0,0,1-3.8-.76,6,6,0,0,1-2.47-2.08,5.2,5.2,0,0,1-.87-2.94,5.37,5.37,0,0,1,.84-3,5.31,5.31,0,0,1,2.64-2,13.12,13.12,0,0,1,4.76-.71h5V341h-4.48a4.1,4.1,0,0,0-2.67.64,2,2,0,0,0-.73,1.6,2,2,0,0,0,.83,1.68,3.64,3.64,0,0,0,2.25.63,5,5,0,0,0,2.54-.64,3.55,3.55,0,0,0,1.58-1.95l.85,2.59a5.07,5.07,0,0,1-2.2,2.75A7.86,7.86,0,0,1,1062.06,349.26Zm5.82-.28v-3.73l-.36-.82v-6.67a3.56,3.56,0,0,0-1.08-2.76,4.74,4.74,0,0,0-3.32-1,9.7,9.7,0,0,0-3,.48,8.45,8.45,0,0,0-2.54,1.3l-1.95-3.87a11.19,11.19,0,0,1,3.77-1.72,17.24,17.24,0,0,1,4.47-.58,10.12,10.12,0,0,1,6.78,2.06c1.6,1.37,2.41,3.5,2.41,6.41V349Z"/><path d="M1096.33,349.26a9.67,9.67,0,0,1-4.86-1.23,8.8,8.8,0,0,1-3.4-3.42,11.44,11.44,0,0,1,0-10.36,8.89,8.89,0,0,1,3.4-3.43,9.76,9.76,0,0,1,4.86-1.21,8.2,8.2,0,0,1,4.23,1.06,7,7,0,0,1,2.8,3.22,13.4,13.4,0,0,1,1,5.54,14,14,0,0,1-.95,5.53,6.7,6.7,0,0,1-2.75,3.25A8.4,8.4,0,0,1,1096.33,349.26Zm.93-4.54a5,5,0,0,0,2.48-.62,4.57,4.57,0,0,0,1.76-1.83,5.81,5.81,0,0,0,.65-2.84,5.73,5.73,0,0,0-.65-2.84,4.66,4.66,0,0,0-1.76-1.79,5,5,0,0,0-2.48-.62,4.93,4.93,0,0,0-2.45.62,4.66,4.66,0,0,0-1.76,1.79,5.84,5.84,0,0,0-.65,2.84,5.93,5.93,0,0,0,.65,2.84,4.57,4.57,0,0,0,1.76,1.83A4.93,4.93,0,0,0,1097.26,344.72Zm5,4.26v-3.91l.1-5.67-.36-5.65v-11.1h5.54V349Z"/><path d="M1125.39,327.22a3.57,3.57,0,0,1-2.52-.88,3,3,0,0,1,0-4.4,3.57,3.57,0,0,1,2.52-.89,3.73,3.73,0,0,1,2.5.83,2.74,2.74,0,0,1,1,2.16,3,3,0,0,1-1,2.28A3.54,3.54,0,0,1,1125.39,327.22ZM1122.63,349V329.89h5.53V349Z"/><path d="M1152.28,349.26a11.1,11.1,0,0,1-5.37-1.28,9.45,9.45,0,0,1-5.06-8.55,9.7,9.7,0,0,1,1.35-5.09,9.4,9.4,0,0,1,3.71-3.47,11.2,11.2,0,0,1,5.37-1.26,11.46,11.46,0,0,1,5.44,1.26,9.36,9.36,0,0,1,3.72,3.47,9.67,9.67,0,0,1-3.72,13.64A11.35,11.35,0,0,1,1152.28,349.26Zm0-4.54a5,5,0,0,0,2.51-.62,4.5,4.5,0,0,0,1.73-1.83,5.81,5.81,0,0,0,.66-2.84,5.73,5.73,0,0,0-.66-2.84,4.59,4.59,0,0,0-1.73-1.79,4.91,4.91,0,0,0-2.46-.62,5,5,0,0,0-2.49.62,4.66,4.66,0,0,0-1.76,1.79,5.73,5.73,0,0,0-.66,2.84,5.81,5.81,0,0,0,.66,2.84,4.57,4.57,0,0,0,1.76,1.83A4.89,4.89,0,0,0,1152.28,344.72Z"/><path d="M1205,349.41a20.5,20.5,0,0,1-5.73-.8,13.48,13.48,0,0,1-4.42-2.08l2-4.33a13.75,13.75,0,0,0,3.76,1.86,14.24,14.24,0,0,0,4.44.73,8.53,8.53,0,0,0,2.74-.36,3.28,3.28,0,0,0,1.55-.94,2,2,0,0,0,.5-1.36,1.88,1.88,0,0,0-.78-1.58,6.4,6.4,0,0,0-2.08-1c-.86-.24-1.8-.48-2.82-.71s-2-.49-3.07-.81a12.16,12.16,0,0,1-2.83-1.28,5.92,5.92,0,0,1-2.06-2.1,6.24,6.24,0,0,1-.77-3.24,7,7,0,0,1,1.14-3.89,7.74,7.74,0,0,1,3.46-2.8,14.2,14.2,0,0,1,5.84-1,19,19,0,0,1,4.62.56,14.08,14.08,0,0,1,4,1.63l-1.82,4.33a14.65,14.65,0,0,0-3.44-1.43,12.91,12.91,0,0,0-3.4-.48,8.13,8.13,0,0,0-2.73.37,3.21,3.21,0,0,0-1.51,1,2.32,2.32,0,0,0-.48,1.42,1.94,1.94,0,0,0,.78,1.6,5.88,5.88,0,0,0,2.06.94c.85.22,1.79.44,2.84.67s2.06.51,3.08.83a13.5,13.5,0,0,1,2.8,1.27,5.86,5.86,0,0,1,2.08,2.06,6,6,0,0,1,.8,3.2,6.87,6.87,0,0,1-1.15,3.84,8.09,8.09,0,0,1-3.49,2.8A14.37,14.37,0,0,1,1205,349.41Z"/><path d="M1226.69,334.57v-4.26h13.23v4.26Zm10.08,14.69a7.49,7.49,0,0,1-5.26-1.72,6.61,6.61,0,0,1-1.88-5.12V325.67h5.57v16.64a2.65,2.65,0,0,0,.63,1.88,2.16,2.16,0,0,0,1.68.67,3.58,3.58,0,0,0,2.27-.71l1.45,3.9a5.68,5.68,0,0,1-2,.91A10,10,0,0,1,1236.77,349.26Z"/><path d="M1260.22,349.26a8.85,8.85,0,0,1-3.8-.76,6,6,0,0,1-2.47-2.08,5.2,5.2,0,0,1-.87-2.94,5.37,5.37,0,0,1,.84-3,5.31,5.31,0,0,1,2.64-2,13.12,13.12,0,0,1,4.76-.71h5V341h-4.48a4.1,4.1,0,0,0-2.67.64,2,2,0,0,0-.73,1.6,2,2,0,0,0,.83,1.68,3.64,3.64,0,0,0,2.25.63,5,5,0,0,0,2.54-.64,3.55,3.55,0,0,0,1.58-1.95l.85,2.59a5.07,5.07,0,0,1-2.2,2.75A7.86,7.86,0,0,1,1260.22,349.26ZM1266,349v-3.73l-.36-.82v-6.67a3.56,3.56,0,0,0-1.08-2.76,4.74,4.74,0,0,0-3.32-1,9.7,9.7,0,0,0-3,.48,8.45,8.45,0,0,0-2.54,1.3l-2-3.87a11.19,11.19,0,0,1,3.77-1.72,17.24,17.24,0,0,1,4.47-.58,10.12,10.12,0,0,1,6.78,2.06c1.6,1.37,2.41,3.5,2.41,6.41V349Z"/><path d="M1283.88,334.57v-4.26h13.23v4.26ZM1294,349.26a7.49,7.49,0,0,1-5.26-1.72,6.57,6.57,0,0,1-1.88-5.12V325.67h5.57v16.64a2.7,2.7,0,0,0,.62,1.88,2.19,2.19,0,0,0,1.69.67,3.58,3.58,0,0,0,2.27-.71l1.45,3.9a5.76,5.76,0,0,1-2,.91A10,10,0,0,1,1294,349.26Z"/><path d="M1314.29,327.22a3.58,3.58,0,0,1-2.53-.88,3,3,0,0,1,0-4.4,3.58,3.58,0,0,1,2.53-.89,3.71,3.71,0,0,1,2.49.83,2.74,2.74,0,0,1,1,2.16,3,3,0,0,1-1,2.28A3.53,3.53,0,0,1,1314.29,327.22ZM1311.52,349V329.89h5.53V349Z"/><path d="M1341.18,349.26a11.14,11.14,0,0,1-5.38-1.28,9.42,9.42,0,0,1-5-8.55,9.69,9.69,0,0,1,1.34-5.09,9.4,9.4,0,0,1,3.71-3.47,11.25,11.25,0,0,1,5.38-1.26,11.45,11.45,0,0,1,5.43,1.26,9.39,9.39,0,0,1,3.73,3.47,9.66,9.66,0,0,1-3.73,13.64A11.34,11.34,0,0,1,1341.18,349.26Zm0-4.54a5,5,0,0,0,2.5-.62,4.59,4.59,0,0,0,1.74-1.83,5.93,5.93,0,0,0,.65-2.84,5.84,5.84,0,0,0-.65-2.84,4.68,4.68,0,0,0-1.74-1.79,4.91,4.91,0,0,0-2.46-.62,5,5,0,0,0-2.49.62,4.66,4.66,0,0,0-1.76,1.79,5.73,5.73,0,0,0-.66,2.84,5.81,5.81,0,0,0,.66,2.84,4.57,4.57,0,0,0,1.76,1.83A4.93,4.93,0,0,0,1341.18,344.72Z"/><path d="M1376.91,329.61a8.94,8.94,0,0,1,4.06.9,6.58,6.58,0,0,1,2.82,2.76,9.81,9.81,0,0,1,1,4.78V349h-5.53V338.9a4.88,4.88,0,0,0-1-3.41,3.68,3.68,0,0,0-2.85-1.1,4.89,4.89,0,0,0-2.37.57,4.1,4.1,0,0,0-1.63,1.67,6.35,6.35,0,0,0-.58,2.91V349h-5.53V329.89h5.28v5.28l-1-1.59a7.09,7.09,0,0,1,2.94-2.95A9.15,9.15,0,0,1,1376.91,329.61Z"/></svg>