<svg id="Layer_1" data-name="Layer 1" xmlns="http://www.w3.org/2000/svg" xmlns:xlink="http://www.w3.org/1999/xlink" viewBox="0 0 640.06 589.06"><defs><style>.cls-1{fill:url(#linear-gradient);}.cls-2,.cls-3,.cls-4,.cls-5,.cls-6,.cls-7,.cls-8,.cls-9{opacity:0.8;}.cls-2{fill:url(#linear-gradient-2);}.cls-3{fill:url(#linear-gradient-3);}.cls-4{fill:url(#linear-gradient-4);}.cls-5{fill:url(#linear-gradient-5);}.cls-6{fill:url(#linear-gradient-6);}.cls-7{fill:url(#linear-gradient-7);}.cls-8{fill:url(#linear-gradient-8);}.cls-9{fill:url(#linear-gradient-9);}.cls-10{fill:url(#linear-gradient-10);}.cls-11{fill:url(#linear-gradient-11);}</style><linearGradient id="linear-gradient" x1="167.21" y1="99.51" x2="461.71" y2="475.3" gradientUnits="userSpaceOnUse"><stop offset="0.16" stop-color="#6638b6"/><stop offset="0.87" stop-color="#00a9ce"/></linearGradient><linearGradient id="linear-gradient-2" x1="515.94" y1="393.63" x2="529.42" y2="254.84" gradientUnits="userSpaceOnUse"><stop offset="0.32" stop-color="#00008b" stop-opacity="0"/><stop offset="0.45" stop-color="#00008a" stop-opacity="0.04"/><stop offset="0.58" stop-color="#000087" stop-opacity="0.15"/><stop offset="0.71" stop-color="#000082" stop-opacity="0.33"/><stop offset="0.84" stop-color="#00007b" stop-opacity="0.59"/><stop offset="0.97" stop-color="#000071" stop-opacity="0.92"/><stop offset="1" stop-color="#00006f"/></linearGradient><linearGradient id="linear-gradient-3" x1="120.67" y1="244.4" x2="99.78" y2="363" gradientUnits="userSpaceOnUse"><stop offset="0" stop-color="#00008b" stop-opacity="0"/><stop offset="0.19" stop-color="#00008a" stop-opacity="0.04"/><stop offset="0.38" stop-color="#000087" stop-opacity="0.15"/><stop offset="0.57" stop-color="#000082" stop-opacity="0.33"/><stop offset="0.76" stop-color="#00007b" stop-opacity="0.59"/><stop offset="0.96" stop-color="#000071" stop-opacity="0.92"/><stop offset="1" stop-color="#00006f"/></linearGradient><linearGradient id="linear-gradient-4" x1="271.43" y1="275.3" x2="256.27" y2="358.17" xlink:href="#linear-gradient-3"/><linearGradient id="linear-gradient-5" x1="154.06" y1="345.12" x2="173.6" y2="274.38" xlink:href="#linear-gradient-3"/><linearGradient id="linear-gradient-6" x1="382.16" y1="273.41" x2="368.69" y2="344.48" xlink:href="#linear-gradient-2"/><linearGradient id="linear-gradient-7" x1="325.27" y1="323.27" x2="308.2" y2="252.53" xlink:href="#linear-gradient-3"/><linearGradient id="linear-gradient-8" x1="434.09" y1="355.59" x2="404.67" y2="274.74" xlink:href="#linear-gradient-3"/><linearGradient id="linear-gradient-9" x1="483.99" y1="283.64" x2="456.82" y2="364.04" gradientUnits="userSpaceOnUse"><stop offset="0" stop-color="#00008b" stop-opacity="0"/><stop offset="0.17" stop-color="#00008a" stop-opacity="0.05"/><stop offset="0.37" stop-color="#000086" stop-opacity="0.18"/><stop offset="0.59" stop-color="navy" stop-opacity="0.4"/><stop offset="0.81" stop-color="#007" stop-opacity="0.7"/><stop offset="1" stop-color="#00006f"/></linearGradient><linearGradient id="linear-gradient-10" x1="411.56" y1="236.46" x2="33.59" y2="104.41" gradientUnits="userSpaceOnUse"><stop offset="0" stop-color="#00008b" stop-opacity="0"/><stop offset="0.15" stop-color="#000089" stop-opacity="0.07"/><stop offset="0.38" stop-color="#000084" stop-opacity="0.25"/><stop offset="0.66" stop-color="#00007c" stop-opacity="0.55"/><stop offset="0.98" stop-color="#000070" stop-opacity="0.97"/><stop offset="1" stop-color="#00006f"/></linearGradient><linearGradient id="linear-gradient-11" x1="1610.33" y1="1019.39" x2="1232.37" y2="887.34" gradientTransform="translate(1838.75 1373.04) rotate(180)" xlink:href="#linear-gradient-10"/></defs><path class="cls-1" d="M553,294.53a237.68,237.68,0,0,1-1.87,29.17A232.73,232.73,0,0,1,168,471.06a235.84,235.84,0,0,1-44.6-51.54,70.85,70.85,0,0,0,9.09.65A67,67,0,0,0,166.36,411c.46-.27,1-.61,1.65-.95A195.41,195.41,0,0,0,190.3,434.6a191,191,0,0,0,298-49.55c2.1-3.93,4.12-7.94,6-12.06a189.68,189.68,0,0,0,16.56-69c.16-3.13.23-6.26.23-9.43,0-5.38-.23-10.73-.68-16l-4,9.81-1.61,3.94-3,7.29-13.05,32-7.41,18.21-.65,1.57-7.44,18.25a42,42,0,0,1-5.65,10.69A31.11,31.11,0,0,1,456,390a26.7,26.7,0,0,1-11.64,2.64,27.29,27.29,0,0,1-11.65-2.6,29.38,29.38,0,0,1-7.29-5c-.42-.38-.84-.76-1.22-1.15A39.67,39.67,0,0,1,415,368.59l-.16-.38-.53-1.79-19.05-62.16-.92,2.79-6.3,19.28c0,.08,0,.12-.07.19L379.63,352l-7.14,21.72-.08.19a42.24,42.24,0,0,1-6.07,11.72,31.28,31.28,0,0,1-11.64,9.7,27.22,27.22,0,0,1-23.22,0,30.48,30.48,0,0,1-8.55-6.11,39.74,39.74,0,0,1-9.16-15.31l-.5-1.37-5.53-27.41-13.9-69.18L283.11,324c0,.16-.07.31-.11.42l-9.32,41.65-2.06,9.17-.38,1.1a43.28,43.28,0,0,1-6,11.76,31.39,31.39,0,0,1-11.65,9.74,27.1,27.1,0,0,1-23.29,0,29.79,29.79,0,0,1-8.55-6.15,40.2,40.2,0,0,1-9.12-15.35l0-.07-23.71-71-14.43,38.9-7.37,19.89-.46,1.26-.26.76-.2.54L166,367l0,0a35.4,35.4,0,0,1-14.05,17l-.45.27a36.74,36.74,0,0,1-45.21-5.72,37.93,37.93,0,0,1-3-3.52,36,36,0,0,1-5.61-11c-.65-2.06-1.26-4.13-1.84-6.19A225,225,0,0,1,90,331.49c-.15-1-.31-2-.46-3.06a13.83,13.83,0,0,1-.23-1.68c-.19-1.37-.38-2.79-.53-4.2-.23-1.72-.42-3.47-.57-5.19-.73-7.52-1.15-15.12-1.15-22.83,0-.42,0-.84,0-1.26A233,233,0,0,1,468.58,115.05c.84.69,1.68,1.38,2.48,2.07.23.19.42.38.65.57a233.6,233.6,0,0,1,60.74,81.09,68.82,68.82,0,0,0-21-3.44h-.19a66.2,66.2,0,0,0-22.42,4c-.91.31-1.79.73-2.71,1.07a190.1,190.1,0,0,0-41.65-50.77c-.19-.19-.42-.35-.61-.54-1.11-.95-2.25-1.83-3.4-2.75A190.86,190.86,0,0,0,129,294.53c0,2.21.11,4.43.19,6.6.15,4.7.42,9.36.91,14q1.1,9.84,3.1,19.35L138.57,320l6.6-17.79,11.73-31.69,3.28-8.82a41.34,41.34,0,0,1,5.92-11.3,31.06,31.06,0,0,1,11.64-9.73,26.91,26.91,0,0,1,23.25,0,28.83,28.83,0,0,1,8.55,6.11,39.7,39.7,0,0,1,9.17,15.31l.07.15,21,62.92,13.78-61.51,11.15-49.82.38-1.11a42.87,42.87,0,0,1,6-11.76,31.32,31.32,0,0,1,11.61-9.73,26.88,26.88,0,0,1,23.36,0,28.68,28.68,0,0,1,8.52,6.11,40.86,40.86,0,0,1,9.16,15.34l.46,1.34,3.17,15.77,1.91,9.39,3,15,4.74,23.59,5.11,25.35,3.52,17.56L366.23,258l.07-.11a42.18,42.18,0,0,1,6-11.76,31.08,31.08,0,0,1,5.35-5.73,29.62,29.62,0,0,1,6.3-4.05,27.18,27.18,0,0,1,11.64-2.63,27.6,27.6,0,0,1,17.26,6.15,25.5,25.5,0,0,1,2.44,2.17,5.84,5.84,0,0,1,.46.42A31.14,31.14,0,0,1,418,245a40.15,40.15,0,0,1,6.95,12.79l.16.38,7.06,23,7.06,23.13,6.57,21.38L464,281.09l3.89-9.51,3.4-8.39,4.32-10.62.11-.27,0,0a41.4,41.4,0,0,1,13.78-19.12,35.83,35.83,0,0,1,9.62-5.16,36.42,36.42,0,0,1,12.11-2.17h.15a38.88,38.88,0,0,1,24.2,8.7,42.53,42.53,0,0,1,13.78,20.58c.16.53.35,1,.5,1.56l.31,1.15.19,1.18c.15,1.11.34,2.22.46,3.32a225.54,225.54,0,0,1,2.1,25.93v0Q553,291.45,553,294.53Z"/><path class="cls-2" d="M553,294.55a237.51,237.51,0,0,1-1.87,29.16,232.51,232.51,0,0,1-21.88,73.34l-41-12c2.1-3.94,4.12-7.95,6-12.07a189.43,189.43,0,0,0,16.57-69c.15-3.14.23-6.27.23-9.43q0-8.08-.69-16l.24-.46c10.78-20.53,41.75-12.93,42.36,10.25Q553,291.43,553,294.55Z"/><path class="cls-3" d="M130.13,315.11q1.1,9.84,3.1,19.35a2.66,2.66,0,0,0-.16.46c-7.44,21.92-38.86,19-43.1-3.43a5.44,5.44,0,0,1-.15-.84c-.12-.73-.23-1.49-.31-2.22a13.83,13.83,0,0,1-.23-1.68c-.19-1.37-.38-2.79-.53-4.2-.23-1.72-.42-3.47-.57-5.19-.73-7.52-1.15-15.12-1.15-22.83,0-.42,0-.84,0-1.26a231.64,231.64,0,0,1,9.58-65.09l33.75,15.31,4.92,2.21A190.78,190.78,0,0,0,129,294.53c0,2.21.11,4.43.19,6.6C129.37,305.83,129.64,310.49,130.13,315.11Z"/><path class="cls-4" d="M293.84,275.94,283.1,324c-5.05,22.57-37,23.57-43.28,1.32l0-.12,13.78-61.51Z"/><path class="cls-5" d="M188.83,305.13c-4.92-22.14-35.75-24.15-43.65-2.89L138.57,320l-5.34,14.43,33.82,29.59,7.37-19.89,14.43-38.9A1.11,1.11,0,0,1,188.83,305.13Z"/><path class="cls-6" d="M416,239.87l-27.29,84.59c-.19.65-.46,1.26-.68,1.87,0,.08,0,.12-.08.19-8.55,20.08-39.17,16.8-42.3-5.72v-.12L366.23,258l.07-.11a42.48,42.48,0,0,1,6-11.76,31,31,0,0,1,5.34-5.73Z"/><path class="cls-7" d="M345.69,320.8l-37.95,24.32-13.9-69.18c.05-.19.1-.37.16-.55,6.44-22.06,38.54-20.14,43.08,2.39Z"/><path class="cls-8" d="M454.55,355.19,425.4,385.05c-.42-.38-.84-.76-1.22-1.15A39.67,39.67,0,0,1,415,368.59l-.15-.38-.54-1.79-19.05-62.16.27-.84c0-.15.11-.34.15-.49,7.22-20.73,37.11-19.59,43.52,1.41Z"/><path class="cls-9" d="M488.75,331.57c-7.8,19.11-35.7,18.38-41.68-1.37,0-.16-.09-.31-.13-.47l-1.15-4L464,281.09l3.9-9.51,38.52,16.76-1.6,3.94-3,7.29Z"/><path class="cls-10" d="M468.58,115.05C460.3,127,452,138.88,444.45,149.61c-.19-.19-.42-.35-.61-.54-1.11-.95-2.25-1.83-3.4-2.75A190.86,190.86,0,0,0,129,294.53s-2.37-21.3,1.37-51c6.24-50,29.64-123.89,110.17-161a210.74,210.74,0,0,1,166.79-4A232.74,232.74,0,0,1,468.58,115.05Z"/><path class="cls-11" d="M171.37,475.11c8.29-11.91,16.61-23.82,24.13-34.55.19.19.42.34.61.54,1.11.95,2.25,1.83,3.4,2.74A191.11,191.11,0,0,0,511,295.56s2.26,21.38-1.48,51.12c-6.24,50-29.64,123.89-110.17,161a210.65,210.65,0,0,1-166.79,4A232.63,232.63,0,0,1,171.37,475.11Z"/></svg>